<svg class='w-14 h-14' xmlns="http://www.w3.org/2000/svg" xmlns:xlink="http://www.w3.org/1999/xlink" viewBox="0 0 461.88 348.37"><defs><style>.cls-1{fill:#dcdbdb;}.cls-10,.cls-11,.cls-12,.cls-13,.cls-2,.cls-5,.cls-6,.cls-7,.cls-8,.cls-9{fill:none;stroke-miterlimit:10;stroke-width:15px;}.cls-2{stroke:#000;}.cls-3{fill:#ebebea;}.cls-4{fill:#fff;}.cls-10,.cls-11,.cls-12,.cls-13,.cls-5,.cls-6,.cls-7,.cls-8,.cls-9{stroke-linecap:round;}.cls-5{stroke:url(#linear-gradient);}.cls-6{stroke:url(#linear-gradient-2);}.cls-7{stroke:url(#linear-gradient-3);}.cls-8{stroke:url(#linear-gradient-4);}.cls-9{stroke:url(#linear-gradient-5);}.cls-10{stroke:url(#linear-gradient-6);}.cls-11{stroke:url(#linear-gradient-7);}.cls-12{stroke:url(#linear-gradient-8);}.cls-13{stroke:url(#linear-gradient-9);}</style><linearGradient id="linear-gradient" x1="93.03" y1="49.01" x2="209.91" y2="49.01" gradientTransform="matrix(0.77, 0.21, -0.27, 0.96, 43.97, -36.34)" gradientUnits="userSpaceOnUse"><stop offset="0" stop-color="#4f98d3"/><stop offset="0" stop-color="#64abde"/><stop offset="1" stop-color="#1e4490"/></linearGradient><linearGradient id="linear-gradient-2" x1="-1.09" y1="73.16" x2="115.79" y2="73.16" gradientTransform="matrix(0.49, 0.12, -0.23, 0.97, 121.59, -12.13)" xlink:href="#linear-gradient"/><linearGradient id="linear-gradient-3" x1="110.79" y1="101.11" x2="227.67" y2="101.11" gradientTransform="matrix(0.24, 0.08, -0.31, 0.95, 148.14, -9.23)" xlink:href="#linear-gradient"/><linearGradient id="linear-gradient-4" x1="233.64" y1="125.61" x2="350.52" y2="125.61" gradientTransform="matrix(0.23, 0.11, -0.42, 0.91, 164.32, -11.81)" xlink:href="#linear-gradient"/><linearGradient id="linear-gradient-5" x1="177.89" y1="152.7" x2="294.78" y2="152.7" gradientTransform="matrix(0.24, 0.08, -0.31, 0.95, 146.45, -13.3)" xlink:href="#linear-gradient"/><linearGradient id="linear-gradient-6" x1="55.6" y1="174.81" x2="172.49" y2="174.81" gradientTransform="matrix(0.49, 0.12, -0.23, 0.97, 121.59, -12.13)" xlink:href="#linear-gradient"/><linearGradient id="linear-gradient-7" x1="115.6" y1="200.64" x2="232.49" y2="200.64" gradientTransform="matrix(0.47, 0.16, -0.31, 0.95, 140.14, -14.16)" xlink:href="#linear-gradient"/><linearGradient id="linear-gradient-8" x1="154.58" y1="227.54" x2="271.47" y2="227.54" gradientTransform="matrix(0.98, 0.33, -0.32, 0.95, 23.74, -51.4)" xlink:href="#linear-gradient"/><linearGradient id="linear-gradient-9" x1="166.95" y1="256.45" x2="283.83" y2="256.45" gradientTransform="matrix(0.24, 0.06, -0.23, 0.97, 123.66, -14.66)" xlink:href="#linear-gradient"/></defs><g id="Layer_2" data-name="Layer 2"><g id="Layer_1-2" data-name="Layer 1"><path class="cls-1" d="M221.06,329.72a478.73,478.73,0,0,0-203.68,0c-5.47,1.19-9.88-2.21-9.88-7.74V118.54a13.15,13.15,0,0,1,9.88-12.26,478.64,478.64,0,0,1,213.56,2.26V322C230.94,327.51,226.53,330.91,221.06,329.72Z"/><path class="cls-2" d="M221.06,329.72a478.73,478.73,0,0,0-203.68,0c-5.47,1.19-9.88-2.21-9.88-7.74V118.54a13.15,13.15,0,0,1,9.88-12.26,478.64,478.64,0,0,1,213.56,2.26V322C230.94,327.51,226.53,330.91,221.06,329.72Z"/><path class="cls-3" d="M44.74,70.79c0-4.76,3.43-9.33,7.54-12.12,1.16-.83,7.85-3.26,9.18-3.17,55.46-8.87,114.92.53,169.48,28.22V317.63c0,2.76-2.17,13.55-4.85,12.62-57.16-28.14-119.34-36.43-176.5-24.87-2.68.93-4.85-9.78-4.85-12.55Z"/><path class="cls-2" d="M44.74,70.79c0-4.76,3.43-9.33,7.54-12.12,1.16-.83,7.85-3.26,9.18-3.17,55.46-8.87,114.92.53,169.48,28.22V317.63c0,2.76-2.17,13.55-4.85,12.62-57.16-28.14-119.34-36.43-176.5-24.87-2.68.93-4.85-9.78-4.85-12.55Z"/><path class="cls-4" d="M230.94,332c-46.79-40.41-102.17-57-149-49.73V23c0-6.83,6.3-14.88,12.6-15.25,43.91-2.78,93.7,14.26,136.36,51.1Z"/><path class="cls-2" d="M230.94,332c-46.79-40.41-102.17-57-149-49.73V23c0-6.83,6.3-14.88,12.6-15.25,43.91-2.78,93.7,14.26,136.36,51.1Z"/><path class="cls-1" d="M230.94,332a478.64,478.64,0,0,1,213.56-2.26c5.47,1.19,9.88-2.21,9.88-7.74V118.54a13.15,13.15,0,0,0-9.88-12.26,478.64,478.64,0,0,0-213.56,2.26Z"/><path class="cls-2" d="M230.94,332a478.64,478.64,0,0,1,213.56-2.26c5.47,1.19,9.88-2.21,9.88-7.74V118.54a13.15,13.15,0,0,0-9.88-12.26,478.64,478.64,0,0,0-213.56,2.26Z"/><path class="cls-3" d="M230.94,332c57.37-29.07,120.16-37.93,178-26.59,4.69.88,8.18-2,8.18-6.87V70.79c0-6.17-5.4-12.84-11.28-13.62-57-10.65-118.57-1.8-174.92,26.55Z"/><path class="cls-2" d="M230.94,332c57.37-29.07,120.16-37.93,178-26.59,4.69.88,8.18-2,8.18-6.87V70.79c0-6.17-5.4-12.84-11.28-13.62-57-10.65-118.57-1.8-174.92,26.55Z"/><path class="cls-4" d="M230.94,332c44.64-38.56,97.11-55.42,142.47-50.58,3.9.42,6.49-2,6.49-6.35V23c0-6.83-6.3-14.88-12.6-15.25C323.39,5,273.6,22.05,230.94,58.89Z"/><path class="cls-2" d="M230.94,332c44.64-38.56,97.11-55.42,142.47-50.58,3.9.42,6.49-2,6.49-6.35V23c0-6.83-6.3-14.88-12.6-15.25C323.39,5,273.6,22.05,230.94,58.89Z"/><path class="cls-5" d="M108.08,34.51c25.89,1,52.89,8.27,78.78,21.73"/><path class="cls-6" d="M107.52,61.19a114.88,114.88,0,0,1,49.57,11.74"/><path class="cls-7" d="M144.36,96.7a60.45,60.45,0,0,1,24.2,8"/><path class="cls-8" d="M165.84,128.07a65.81,65.81,0,0,1,23.1,10.73"/><path class="cls-9" d="M142.46,146.88a60.45,60.45,0,0,1,24.2,8"/><path class="cls-10" d="M111.67,166.64a114.88,114.88,0,0,1,49.57,11.74"/><path class="cls-11" d="M135.37,197c15.9,1.49,32.48,6.81,48.38,15.94"/><path class="cls-12" d="M108.08,220.26c32.67,3.37,66.73,14.57,99.4,33.62"/><path class="cls-13" d="M106.83,245.63a57.49,57.49,0,0,1,24.78,5.87"/></g></g></svg>